<?xml version="1.0" encoding="UTF-8" standalone="no"?>
<!DOCTYPE svg PUBLIC "-//W3C//DTD SVG 1.1//EN" "http://www.w3.org/Graphics/SVG/1.1/DTD/svg11.dtd">
<!-- Created with Vectornator (http://vectornator.io/) -->
<svg height="800px" stroke-miterlimit="10" style="fill-rule:nonzero;clip-rule:evenodd;stroke-linecap:round;stroke-linejoin:round;" version="1.1" viewBox="0 0 32 32" width="800px" xml:space="preserve" xmlns="http://www.w3.org/2000/svg" xmlns:vectornator="http://vectornator.io" xmlns:xlink="http://www.w3.org/1999/xlink" >
<defs/>
<g id="Layer-1" vectornator:layerName="Layer 1">
<path d="M3.91527e-15 16.022C3.91527e-15 7.52078 7.02323 0.629161 15.6868 0.629161C24.3504 0.629161 31.3736 7.52078 31.3736 16.022C31.3736 24.5233 24.3504 31.4149 15.6868 31.4149C7.02323 31.4149 3.91527e-15 24.5233 3.91527e-15 16.022Z" fill="#ffffff" fill-rule="nonzero" opacity="1" stroke="none" vectornator:layerName="Oval 1"/>
</g>
<clipPath id="ArtboardFrame">
<rect height="32" width="32" x="0" y="0"/>
</clipPath>
<g clip-path="url(#ArtboardFrame)" id="Untitled" vectornator:layerName="Untitled">
<path d="M15.917 0.021C14.578 0.026 13.245 0.193 11.948 0.526C5.708 2.078 0.755 7.729 0.12 14.139C-0.667 20.202 2.401 26.52 7.645 29.65C12.797 32.874 19.77 32.745 24.812 29.354C29.344 26.411 32.161 21.051 31.995 15.639C31.918 10.286 28.912 5.082 24.312 2.332C21.807 0.785 18.86 0.009 15.917 0.02L15.917 0.021ZM15.828 2.281C22.421 2.27 28.88 7.369 29.541 14.182C30.802 21.729 24.536 29.401 16.89 29.625C9.619 30.349 2.587 24.182 2.379 16.88C1.838 10.969 5.739 5.099 11.311 3.145C12.748 2.573 14.28 2.281 15.827 2.286L15.828 2.281ZM22.62 6.584C19.036 9.364 15.604 12.328 12.099 15.193C13.703 15.213 15.318 15.213 16.927 15.202C18.807 12.317 20.74 9.469 22.62 6.583L22.62 6.584ZM15.068 16.787C13.188 19.678 11.251 22.531 9.369 25.422C12.964 22.646 16.38 19.662 19.906 16.813C18.291 16.793 16.677 16.788 15.067 16.788L15.068 16.787Z" fill="#000000" fill-rule="nonzero" opacity="1" stroke="none" vectornator:layerName="path"/>
</g>
</svg>
